<svg xmlns="http://www.w3.org/2000/svg" xmlns:xlink="http://www.w3.org/1999/xlink" width="992" zoomAndPan="magnify" viewBox="0 0 744 226.499993" height="302" preserveAspectRatio="xMidYMid meet" version="1.0"><defs><g/><clipPath id="1ec74f2959"><rect x="0" width="367" y="0" height="118"/></clipPath></defs><path stroke-linecap="butt" transform="matrix(-2.620089, 0, 0, 2.620534, 414.949315, -199.749623)" fill-opacity="1" fill="#000000" fill-rule="nonzero" stroke-linejoin="miter" d="M 102.882986 104.716686 L 101.219159 102.597009 C 100.10696 101.180909 98.830763 99.934742 97.386096 98.859997 C 96.208297 98.032697 94.973845 97.300797 93.68423 96.664297 C 92.394615 96.026307 91.064746 95.48968 89.693132 95.055907 C 88.321519 94.620642 86.92456 94.292703 85.502256 94.07209 C 84.081443 93.849986 82.650194 93.738189 81.211491 93.735207 L 79.331486 93.677073 C 78.305757 93.64577 77.285992 93.712848 76.273682 93.879799 C 75.261371 94.046749 74.274406 94.3091 73.312785 94.668342 C 72.351165 95.026094 71.43278 95.474774 70.559122 96.011401 C 69.683973 96.548028 68.86995 97.163659 68.115563 97.859784 C 66.79613 98.862978 65.378299 99.699222 63.862069 100.370006 C 62.34584 101.0393 60.771466 101.523755 59.141929 101.823371 L 57.673408 102.237767 L 55.806821 102.838491 C 55.459445 102.950289 55.121014 103.085936 54.79302 103.245433 C 54.465025 103.40344 54.150448 103.585297 53.847799 103.788023 C 53.543658 103.990749 53.257409 104.214344 52.986068 104.457316 C 52.713236 104.700289 52.459786 104.96115 52.224226 105.239898 C 51.990157 105.517155 51.77547 105.810809 51.580164 106.11937 C 51.386349 106.427931 51.214897 106.748416 51.064318 107.080827 C 50.915229 107.413238 50.789995 107.754592 50.688615 108.104891 C 50.585744 108.455189 50.509709 108.809959 50.457528 109.170692 C 50.308439 110.861067 50.539526 112.49778 51.146316 114.082321 L 51.632345 115.596802 C 52.172045 114.844034 52.61931 114.05698 53.355807 113.377253 C 54.491861 112.327848 57.063637 112.233939 58.605211 112.47393 L 61.454291 112.916648 C 62.964557 113.152167 64.431587 113.548675 65.855382 114.106171 C 67.279176 114.663667 68.625445 115.368736 69.894188 116.222867 C 71.385072 117.275253 72.752213 118.470739 73.995611 119.807835 C 75.239008 121.14344 76.333317 122.593824 77.277047 124.156006 L 77.509625 124.522701 C 79.875659 128.240335 81.80039 132.172619 83.285311 136.321045 C 83.89061 138.060612 84.284204 139.847879 84.464601 141.681355 C 84.646489 143.51334 84.610707 145.342345 84.357257 147.168368 C 84.04119 149.028675 83.504471 150.823395 82.747102 152.552527 C 81.989733 154.280168 81.032585 155.89154 79.87864 157.383662 C 79.209233 158.321269 79.775769 158.218415 81.183164 157.207768 C 102.043619 142.195622 120.292043 141.901968 122.040851 144.367472 C 123.52279 146.454355 118.65058 137.199027 114.628174 128.413248 C 113.629281 126.233945 112.706424 124.00098 111.877492 121.784412 C 109.982578 116.713285 106.225549 108.9784 102.882986 104.716686 Z M 102.882986 104.716686 " stroke="#000000" stroke-width="0.6" stroke-opacity="1" stroke-miterlimit="4"/><path fill="#000000" d="M 157.316406 60.050781 C 149.601562 61.3125 129.9375 64.546875 116.722656 64.527344 C 103.503906 64.507812 96.734375 61.234375 95.835938 59.042969 C 94.9375 56.851562 99.914062 55.746094 107.332031 56.230469 C 114.746094 56.714844 124.601562 58.789062 133.210938 59.722656 C 141.824219 60.65625 149.191406 60.445312 154.992188 59.976562 C 160.792969 59.511719 165.027344 58.792969 157.316406 60.050781 Z M 157.316406 60.050781 " fill-opacity="1" fill-rule="nonzero"/><path fill="#000000" d="M 152.808594 65.839844 C 146.910156 68.074219 129.246094 74.664062 114.328125 77.664062 C 99.414062 80.664062 87.246094 80.078125 78.644531 81.230469 C 70.042969 82.382812 65.007812 85.273438 68.523438 88.109375 C 72.039062 90.949219 84.109375 93.738281 98.605469 90.351562 C 113.105469 86.960938 130.03125 77.394531 141.429688 71.554688 C 152.832031 65.714844 158.703125 63.601562 152.808594 65.839844 Z M 152.808594 65.839844 " fill-opacity="1" fill-rule="nonzero"/><path fill="#000000" d="M 138.078125 82.988281 C 132.273438 86.910156 119.433594 96.007812 106.3125 101.308594 C 93.191406 106.609375 79.792969 108.117188 69.394531 110.914062 C 58.996094 113.710938 51.601562 117.796875 55.929688 120.414062 C 60.257812 123.03125 76.3125 124.179688 92.515625 117.457031 C 108.71875 110.734375 125.074219 96.148438 133.867188 88.230469 C 142.65625 80.3125 143.886719 79.0625 138.078125 82.988281 Z M 138.078125 82.988281 " fill-opacity="1" fill-rule="nonzero"/><path stroke-linecap="butt" transform="matrix(0.693232, 0, 0, 0.69335, -77.791813, -199.749623)" fill-opacity="1" fill="#000000" fill-rule="nonzero" stroke-linejoin="miter" d="M 279.165166 431.137863 C 279.103183 431.042087 279.221514 430.873071 279.424369 430.766027 C 279.9146 430.501235 280.016027 430.642082 279.604683 431.013918 C 279.401829 431.199836 279.232784 431.244907 279.165166 431.137863 Z M 279.165166 431.137863 " stroke="#000000" stroke-width="0.394" stroke-opacity="1" stroke-miterlimit="4"/><path fill="#000000" d="M 138.714844 90.332031 C 137.300781 91.777344 132.71875 97.378906 126.734375 104.132812 C 119.304688 112.523438 106.332031 125.558594 97.066406 132.441406 C 95.074219 133.921875 93.074219 135.320312 91.074219 136.621094 C 83.1875 141.757812 68.449219 147.640625 58.761719 149.617188 C 53.273438 150.738281 48.761719 151.359375 46.265625 152.105469 C 41.449219 153.550781 44.136719 155.460938 50.332031 158.109375 C 55.851562 160.46875 64.152344 163.410156 73.371094 161 C 75.3125 160.492188 78.289062 159.265625 80.007812 158.347656 C 84.222656 156.09375 88.511719 152.800781 92.652344 149.050781 C 101.5 141.039062 113.625 126.347656 120.496094 116.972656 C 123.101562 113.414062 125.570312 109.917969 128.109375 106.3125 C 134.386719 97.417969 141.121094 87.878906 138.714844 90.332031 Z M 138.714844 90.332031 " fill-opacity="1" fill-rule="nonzero"/><path fill="#ffffff" d="M 192.632812 61.375 L 198.789062 63.539062 C 200.011719 63.96875 201.246094 64.101562 202.496094 63.929688 L 206.203125 63.425781 C 207.566406 63.238281 208.929688 63.136719 210.300781 63.109375 C 213.308594 63.074219 216.179688 63.925781 218.917969 65.65625 C 220.25 66.527344 221.40625 67.707031 222.378906 69.1875 L 223.210938 70.40625 L 222.738281 70.886719 C 220.929688 72.734375 218.882812 73.871094 216.589844 74.296875 L 216.238281 74.363281 C 213.304688 74.910156 210.40625 74.589844 207.542969 73.40625 C 205.277344 72.40625 203.132812 71.058594 201.113281 69.359375 C 199.984375 68.40625 198.886719 67.394531 197.820312 66.328125 Z M 192.632812 61.375 " fill-opacity="1" fill-rule="nonzero"/><g transform="matrix(1, 0, 0, 1, 313, 60)"><g clip-path="url(#1ec74f2959)"><g fill="#000000" fill-opacity="1"><g transform="translate(0.368979, 91.31158)"><g><path d="M 58.890625 -45.96875 L 53.3125 -30.140625 C 53.3125 -30.140625 52.953125 -30.097656 52.234375 -30.015625 C 51.515625 -29.929688 50.671875 -29.929688 49.703125 -30.015625 C 48.734375 -30.097656 47.910156 -30.457031 47.234375 -31.09375 C 46.554688 -31.726562 46.21875 -32.71875 46.21875 -34.0625 C 46.644531 -40.644531 45.503906 -45.75 42.796875 -49.375 C 40.097656 -53.007812 36.46875 -54.828125 31.90625 -54.828125 C 28.445312 -54.828125 25.617188 -53.519531 23.421875 -50.90625 C 21.234375 -48.289062 20.140625 -44.660156 20.140625 -40.015625 C 20.140625 -34.191406 21.425781 -29.019531 24 -24.5 C 26.570312 -19.988281 29.863281 -16.421875 33.875 -13.796875 C 37.882812 -11.179688 42.085938 -9.832031 46.484375 -9.75 C 48.671875 -9.75 50.925781 -10.128906 53.25 -10.890625 C 55.570312 -11.648438 57.914062 -12.914062 60.28125 -14.6875 C 60.363281 -14.6875 60.722656 -14.390625 61.359375 -13.796875 C 61.992188 -13.210938 62.375 -12.390625 62.5 -11.328125 C 62.625 -10.273438 61.96875 -9.03125 60.53125 -7.59375 C 57.488281 -4.644531 53.859375 -2.28125 49.640625 -0.5 C 45.421875 1.269531 40.648438 2.15625 35.328125 2.15625 C 29.671875 2.15625 24.4375 0.929688 19.625 -1.515625 C 14.8125 -3.960938 10.925781 -7.488281 7.96875 -12.09375 C 5.019531 -16.695312 3.546875 -22.125 3.546875 -28.375 C 3.546875 -34.113281 4.9375 -39.453125 7.71875 -44.390625 C 10.507812 -49.328125 14.414062 -53.335938 19.4375 -56.421875 C 24.457031 -59.503906 30.390625 -61.046875 37.234375 -61.046875 C 40.273438 -61.046875 43.25 -60.726562 46.15625 -60.09375 C 49.070312 -59.457031 51.644531 -58.484375 53.875 -57.171875 C 56.113281 -55.867188 57.738281 -54.285156 58.75 -52.421875 C 59.769531 -50.566406 59.816406 -48.414062 58.890625 -45.96875 Z M 58.890625 -45.96875 "/></g></g></g><g fill="#000000" fill-opacity="1"><g transform="translate(66.470403, 91.31158)"><g><path d="M 68.265625 -12.03125 C 68.347656 -12.03125 68.660156 -11.988281 69.203125 -11.90625 C 69.753906 -11.820312 70.328125 -11.484375 70.921875 -10.890625 C 71.515625 -10.296875 71.8125 -9.285156 71.8125 -7.859375 C 71.8125 -5.492188 70.5625 -3.253906 68.0625 -1.140625 C 65.570312 0.972656 62.21875 2.03125 58 2.03125 C 54.28125 2.03125 51.070312 1.101562 48.375 -0.75 C 45.675781 -2.613281 43.90625 -6.117188 43.0625 -11.265625 C 41.457031 -6.628906 38.960938 -3.234375 35.578125 -1.078125 C 32.203125 1.078125 28.660156 2.15625 24.953125 2.15625 C 19.796875 2.15625 15.613281 1.144531 12.40625 -0.875 C 9.195312 -2.90625 6.832031 -5.503906 5.3125 -8.671875 C 3.800781 -11.835938 3.046875 -15.148438 3.046875 -18.609375 C 3.046875 -24.523438 5.175781 -29.296875 9.4375 -32.921875 C 13.695312 -36.554688 19.332031 -38.375 26.34375 -38.375 C 29.125 -38.375 31.632812 -38.222656 33.875 -37.921875 C 36.113281 -37.628906 38.160156 -37.273438 40.015625 -36.859375 L 39.515625 -41.15625 C 39.003906 -45.800781 37.523438 -49.070312 35.078125 -50.96875 C 32.628906 -52.875 29.421875 -53.828125 25.453125 -53.828125 C 19.203125 -53.828125 13.757812 -51.800781 9.125 -47.75 C 9.125 -47.75 8.765625 -48.019531 8.046875 -48.5625 C 7.328125 -49.113281 6.859375 -49.851562 6.640625 -50.78125 C 6.429688 -51.707031 7.046875 -52.722656 8.484375 -53.828125 C 10.847656 -56.015625 14.117188 -57.765625 18.296875 -59.078125 C 22.472656 -60.390625 27.179688 -61.046875 32.421875 -61.046875 C 37.398438 -61.046875 41.875 -60.410156 45.84375 -59.140625 C 49.8125 -57.867188 53.0625 -55.648438 55.59375 -52.484375 C 58.125 -49.328125 59.6875 -44.921875 60.28125 -39.265625 L 62.9375 -15.0625 C 63.101562 -13.207031 63.460938 -11.960938 64.015625 -11.328125 C 64.566406 -10.703125 65.132812 -10.390625 65.71875 -10.390625 C 66.90625 -10.390625 67.753906 -10.9375 68.265625 -12.03125 Z M 32.671875 -11.015625 C 35.117188 -11.015625 37.226562 -12.003906 39 -13.984375 C 40.78125 -15.972656 41.671875 -18.613281 41.671875 -21.90625 L 41.671875 -22.796875 L 40.78125 -30.515625 C 39.175781 -30.941406 37.507812 -31.320312 35.78125 -31.65625 C 34.050781 -32 32.632812 -32.171875 31.53125 -32.171875 C 28.070312 -32.171875 25.539062 -31.390625 23.9375 -29.828125 C 22.332031 -28.265625 21.53125 -25.921875 21.53125 -22.796875 C 21.53125 -19.753906 22.476562 -17.03125 24.375 -14.625 C 26.28125 -12.21875 29.046875 -11.015625 32.671875 -11.015625 Z M 32.671875 -11.015625 "/></g></g></g><g fill="#000000" fill-opacity="1"><g transform="translate(136.370642, 91.31158)"><g><path d="M 2.15625 -8.984375 L 6.71875 -22.796875 C 6.800781 -22.960938 7.328125 -23.046875 8.296875 -23.046875 C 9.265625 -23.046875 10.273438 -22.726562 11.328125 -22.09375 C 12.390625 -21.46875 13.003906 -20.222656 13.171875 -18.359375 C 13.253906 -12.867188 14.539062 -9.003906 17.03125 -6.765625 C 19.519531 -4.535156 22.582031 -3.421875 26.21875 -3.421875 C 28.582031 -3.421875 30.546875 -3.882812 32.109375 -4.8125 C 33.671875 -5.738281 34.453125 -7.300781 34.453125 -9.5 C 34.453125 -11.945312 33.375 -14.242188 31.21875 -16.390625 C 29.0625 -18.546875 25.535156 -21.144531 20.640625 -24.1875 C 18.109375 -25.957031 15.640625 -27.832031 13.234375 -29.8125 C 10.828125 -31.800781 8.84375 -34 7.28125 -36.40625 C 5.71875 -38.8125 4.9375 -41.492188 4.9375 -44.453125 C 4.9375 -49.265625 7.28125 -53.234375 11.96875 -56.359375 C 16.65625 -59.484375 23.21875 -61.046875 31.65625 -61.046875 C 34.53125 -61.046875 37.484375 -60.8125 40.515625 -60.34375 C 43.554688 -59.875 46.320312 -59.238281 48.8125 -58.4375 C 51.3125 -57.632812 53.253906 -56.664062 54.640625 -55.53125 C 56.035156 -54.394531 56.523438 -53.148438 56.109375 -51.796875 L 51.796875 -39.125 C 51.796875 -38.957031 51.3125 -38.894531 50.34375 -38.9375 C 49.375 -38.976562 48.398438 -39.273438 47.421875 -39.828125 C 46.453125 -40.378906 45.96875 -41.328125 45.96875 -42.671875 C 46.132812 -46.898438 45.078125 -50.085938 42.796875 -52.234375 C 40.523438 -54.390625 37.363281 -55.46875 33.3125 -55.46875 C 30.601562 -55.46875 28.828125 -55.003906 27.984375 -54.078125 C 27.140625 -53.148438 26.71875 -52.050781 26.71875 -50.78125 C 26.71875 -48.757812 27.859375 -46.796875 30.140625 -44.890625 C 32.421875 -42.992188 35.375 -40.78125 39 -38.25 C 42.039062 -36.300781 44.890625 -34.25 47.546875 -32.09375 C 50.210938 -29.945312 52.367188 -27.628906 54.015625 -25.140625 C 55.660156 -22.648438 56.484375 -19.925781 56.484375 -16.96875 C 56.484375 -10.550781 53.820312 -5.738281 48.5 -2.53125 C 43.1875 0.675781 36.179688 2.28125 27.484375 2.28125 C 24.359375 2.28125 21.210938 1.960938 18.046875 1.328125 C 14.878906 0.691406 12.03125 -0.171875 9.5 -1.265625 C 6.96875 -2.359375 5.003906 -3.582031 3.609375 -4.9375 C 2.210938 -6.289062 1.726562 -7.640625 2.15625 -8.984375 Z M 2.15625 -8.984375 "/></g></g></g><g fill="#000000" fill-opacity="1"><g transform="translate(195.633981, 91.31158)"><g><path d="M 2.15625 -8.984375 L 6.71875 -22.796875 C 6.800781 -22.960938 7.328125 -23.046875 8.296875 -23.046875 C 9.265625 -23.046875 10.273438 -22.726562 11.328125 -22.09375 C 12.390625 -21.46875 13.003906 -20.222656 13.171875 -18.359375 C 13.253906 -12.867188 14.539062 -9.003906 17.03125 -6.765625 C 19.519531 -4.535156 22.582031 -3.421875 26.21875 -3.421875 C 28.582031 -3.421875 30.546875 -3.882812 32.109375 -4.8125 C 33.671875 -5.738281 34.453125 -7.300781 34.453125 -9.5 C 34.453125 -11.945312 33.375 -14.242188 31.21875 -16.390625 C 29.0625 -18.546875 25.535156 -21.144531 20.640625 -24.1875 C 18.109375 -25.957031 15.640625 -27.832031 13.234375 -29.8125 C 10.828125 -31.800781 8.84375 -34 7.28125 -36.40625 C 5.71875 -38.8125 4.9375 -41.492188 4.9375 -44.453125 C 4.9375 -49.265625 7.28125 -53.234375 11.96875 -56.359375 C 16.65625 -59.484375 23.21875 -61.046875 31.65625 -61.046875 C 34.53125 -61.046875 37.484375 -60.8125 40.515625 -60.34375 C 43.554688 -59.875 46.320312 -59.238281 48.8125 -58.4375 C 51.3125 -57.632812 53.253906 -56.664062 54.640625 -55.53125 C 56.035156 -54.394531 56.523438 -53.148438 56.109375 -51.796875 L 51.796875 -39.125 C 51.796875 -38.957031 51.3125 -38.894531 50.34375 -38.9375 C 49.375 -38.976562 48.398438 -39.273438 47.421875 -39.828125 C 46.453125 -40.378906 45.96875 -41.328125 45.96875 -42.671875 C 46.132812 -46.898438 45.078125 -50.085938 42.796875 -52.234375 C 40.523438 -54.390625 37.363281 -55.46875 33.3125 -55.46875 C 30.601562 -55.46875 28.828125 -55.003906 27.984375 -54.078125 C 27.140625 -53.148438 26.71875 -52.050781 26.71875 -50.78125 C 26.71875 -48.757812 27.859375 -46.796875 30.140625 -44.890625 C 32.421875 -42.992188 35.375 -40.78125 39 -38.25 C 42.039062 -36.300781 44.890625 -34.25 47.546875 -32.09375 C 50.210938 -29.945312 52.367188 -27.628906 54.015625 -25.140625 C 55.660156 -22.648438 56.484375 -19.925781 56.484375 -16.96875 C 56.484375 -10.550781 53.820312 -5.738281 48.5 -2.53125 C 43.1875 0.675781 36.179688 2.28125 27.484375 2.28125 C 24.359375 2.28125 21.210938 1.960938 18.046875 1.328125 C 14.878906 0.691406 12.03125 -0.171875 9.5 -1.265625 C 6.96875 -2.359375 5.003906 -3.582031 3.609375 -4.9375 C 2.210938 -6.289062 1.726562 -7.640625 2.15625 -8.984375 Z M 2.15625 -8.984375 "/></g></g></g><g fill="#000000" fill-opacity="1"><g transform="translate(254.897337, 91.31158)"><g><path d="M 20.390625 -68.390625 C 16.753906 -68.390625 13.859375 -69.316406 11.703125 -71.171875 C 9.554688 -73.023438 8.484375 -75.265625 8.484375 -77.890625 C 8.484375 -80.921875 9.769531 -83.425781 12.34375 -85.40625 C 14.914062 -87.394531 18.101562 -88.390625 21.90625 -88.390625 C 25.539062 -88.390625 28.429688 -87.460938 30.578125 -85.609375 C 32.734375 -83.753906 33.8125 -81.472656 33.8125 -78.765625 C 33.8125 -75.816406 32.523438 -73.347656 29.953125 -71.359375 C 27.378906 -69.378906 24.191406 -68.390625 20.390625 -68.390625 Z M 32.671875 -36.21875 L 32.671875 -16.71875 C 32.671875 -12.832031 33.113281 -9.957031 34 -8.09375 C 34.882812 -6.238281 36.300781 -5.226562 38.25 -5.0625 C 39.851562 -4.976562 40.820312 -4.492188 41.15625 -3.609375 C 41.5 -2.722656 41.5625 -1.859375 41.34375 -1.015625 C 41.132812 -0.171875 40.945312 0.25 40.78125 0.25 C 35.625 0 29.734375 -0.101562 23.109375 -0.0625 C 16.484375 -0.0195312 10.128906 0.0820312 4.046875 0.25 C 3.960938 0.25 3.816406 -0.171875 3.609375 -1.015625 C 3.398438 -1.859375 3.503906 -2.722656 3.921875 -3.609375 C 4.347656 -4.492188 5.363281 -5.019531 6.96875 -5.1875 C 8.988281 -5.363281 10.398438 -6.359375 11.203125 -8.171875 C 12.003906 -9.984375 12.40625 -12.875 12.40625 -16.84375 L 12.40625 -38.375 C 12.40625 -40.3125 12.085938 -42.039062 11.453125 -43.5625 C 10.828125 -45.082031 9.414062 -46.140625 7.21875 -46.734375 C 6.125 -47.148438 5.445312 -47.820312 5.1875 -48.75 C 4.9375 -49.6875 4.894531 -50.554688 5.0625 -51.359375 C 5.226562 -52.160156 5.359375 -52.5625 5.453125 -52.5625 C 11.273438 -53.488281 16.0625 -54.582031 19.8125 -55.84375 C 23.570312 -57.113281 26.890625 -58.757812 29.765625 -60.78125 C 29.929688 -60.875 30.351562 -60.894531 31.03125 -60.84375 C 31.707031 -60.800781 32.359375 -60.65625 32.984375 -60.40625 C 33.617188 -60.15625 33.894531 -59.734375 33.8125 -59.140625 C 33.5625 -55.765625 33.347656 -52.875 33.171875 -50.46875 C 33.003906 -48.0625 32.878906 -45.757812 32.796875 -43.5625 C 32.710938 -41.363281 32.671875 -38.914062 32.671875 -36.21875 Z M 32.671875 -36.21875 "/></g></g></g><g fill="#000000" fill-opacity="1"><g transform="translate(299.851361, 91.31158)"><g><path d="M 59.90625 -14.6875 C 60.40625 -15.03125 60.953125 -14.84375 61.546875 -14.125 C 62.140625 -13.40625 62.394531 -12.390625 62.3125 -11.078125 C 62.226562 -9.773438 61.382812 -8.363281 59.78125 -6.84375 C 57.070312 -4.132812 53.5625 -1.957031 49.25 -0.3125 C 44.945312 1.332031 40.222656 2.15625 35.078125 2.15625 C 29.421875 2.15625 24.207031 0.929688 19.4375 -1.515625 C 14.664062 -3.960938 10.820312 -7.488281 7.90625 -12.09375 C 5 -16.695312 3.546875 -22.125 3.546875 -28.375 C 3.546875 -33.9375 4.914062 -39.207031 7.65625 -44.1875 C 10.40625 -49.175781 14.351562 -53.234375 19.5 -56.359375 C 24.65625 -59.484375 30.816406 -61.046875 37.984375 -61.046875 C 42.972656 -61.046875 47.40625 -60.242188 51.28125 -58.640625 C 55.164062 -57.035156 58.207031 -54.835938 60.40625 -52.046875 C 62.601562 -49.265625 63.703125 -46.054688 63.703125 -42.421875 C 63.703125 -36.171875 60.597656 -30.957031 54.390625 -26.78125 C 48.179688 -22.601562 39.128906 -20.390625 27.234375 -20.140625 C 29.679688 -17.015625 32.550781 -14.5625 35.84375 -12.78125 C 39.132812 -11.007812 42.59375 -10.082031 46.21875 -10 C 48.25 -9.914062 50.46875 -10.210938 52.875 -10.890625 C 55.28125 -11.566406 57.625 -12.832031 59.90625 -14.6875 Z M 30.515625 -54.328125 C 26.890625 -54.328125 24.1875 -53.144531 22.40625 -50.78125 C 20.632812 -48.414062 19.75 -45.378906 19.75 -41.671875 C 19.75 -38.628906 20.109375 -35.734375 20.828125 -32.984375 C 21.546875 -30.242188 22.539062 -27.648438 23.8125 -25.203125 C 29.71875 -25.367188 34.460938 -26.273438 38.046875 -27.921875 C 41.640625 -29.566406 43.4375 -32.332031 43.4375 -36.21875 C 43.4375 -39.34375 42.78125 -42.273438 41.46875 -45.015625 C 40.164062 -47.765625 38.539062 -50.003906 36.59375 -51.734375 C 34.65625 -53.460938 32.628906 -54.328125 30.515625 -54.328125 Z M 30.515625 -54.328125 "/></g></g></g></g></g></svg>